<svg version="1.1" id="Layer_1" xmlns="http://www.w3.org/2000/svg" xmlns:xlink="http://www.w3.org/1999/xlink" x="0px" y="0px"
	 width="100%" viewBox="0 0 669 850" enable-background="new 0 0 669 850" xml:space="preserve">
<path fill="#010101" opacity="1.000000" stroke="none" 
	d="
M1.000000,342.000000 
	C1.000000,228.000000 1.000000,114.500000 1.000000,1.000000 
	C224.000000,1.000000 447.000000,1.000000 670.000000,1.000000 
	C670.000000,284.333344 670.000000,567.666687 670.000000,851.000000 
	C447.000000,851.000000 224.000000,851.000000 1.000000,851.000000 
	C1.000000,681.500000 1.000000,512.000000 1.000000,342.000000 
M470.646729,664.997375 
	C471.096680,665.034790 471.546661,665.072205 472.575378,665.845398 
	C474.087891,665.346252 475.627838,664.917114 477.108368,664.336487 
	C485.612061,661.001282 494.208801,658.204407 503.590820,659.197815 
	C503.037994,664.269653 502.634155,669.142700 501.925934,673.971130 
	C501.580261,676.327637 500.275238,678.568359 500.080383,680.917664 
	C499.338409,689.864563 499.180817,698.867737 498.219421,707.786743 
	C497.161743,717.598755 495.459351,727.341248 493.398590,737.487244 
	C493.191986,737.352356 492.985382,737.217468 492.974274,736.201233 
	C492.930267,733.802185 492.886261,731.403198 492.994324,728.158203 
	C493.611938,722.665588 488.938995,726.076782 486.554565,724.070618 
	C485.434113,724.070618 484.313660,724.070618 483.415100,724.070618 
	C482.925995,729.086426 482.657349,733.874756 481.885529,738.580566 
	C481.637726,740.091309 480.361328,742.062683 479.036255,742.648132 
	C475.230591,744.329529 471.159302,745.409790 467.063873,746.768982 
	C463.927979,740.731750 461.096649,734.611572 457.673615,728.842529 
	C452.074432,719.405884 446.090088,710.197693 440.037262,700.275635 
	C439.027771,699.453552 438.018250,698.631531 436.686218,697.161194 
	C431.585022,696.149902 426.445190,694.121277 421.389771,694.313538 
	C404.636169,694.950378 398.120331,702.285217 397.954742,718.849060 
	C397.851807,729.145630 397.994354,739.522095 396.722198,749.699585 
	C396.003937,755.445374 397.101746,759.715454 400.636719,763.784668 
	C403.309143,766.861023 406.547516,767.628357 409.867371,765.133972 
	C413.200531,762.629456 413.281616,759.319336 411.140320,755.863342 
	C410.386902,754.647400 409.139221,753.409973 409.084320,752.140503 
	C408.617645,741.348694 407.928497,730.536377 408.193390,719.751953 
	C408.441010,709.670105 410.515900,707.818420 420.739685,705.993958 
	C421.494507,705.941223 422.249329,705.888550 423.833435,705.984741 
	C427.541656,707.362000 431.249847,708.739319 435.129211,710.664551 
	C436.092285,711.538086 437.055328,712.411621 438.269073,713.983032 
	C442.997528,721.048401 447.725983,728.113770 452.487976,735.555786 
	C452.620697,735.783264 452.810394,735.943054 453.160431,736.823914 
	C455.078979,740.662903 456.874481,744.570435 458.961639,748.315491 
	C460.237488,750.604858 459.705109,752.218872 457.298065,753.925049 
	C456.561768,754.626587 455.825470,755.328064 454.376282,756.311340 
	C452.300720,759.000061 451.570862,761.908447 454.777771,764.002563 
	C458.191528,766.231567 460.636658,764.200012 462.835999,761.101440 
	C462.835999,761.101440 463.001038,760.719727 463.729492,761.019836 
	C464.430542,765.319031 468.440186,769.595154 463.268982,774.126404 
	C462.813416,774.738464 462.357849,775.350586 461.277344,776.214355 
	C451.862000,786.546631 448.112213,799.126465 447.256775,812.684814 
	C446.669739,821.989014 450.703522,828.691284 458.558990,832.339355 
	C460.041260,832.821838 461.523529,833.304382 463.828278,833.982422 
	C468.885040,833.969727 473.941772,833.957092 479.754730,834.039734 
	C480.924316,833.734131 482.093933,833.428528 484.018707,833.096375 
	C488.374725,831.137146 492.730743,829.177917 497.766022,827.071045 
	C499.030487,826.086975 500.294952,825.102966 502.149292,823.950012 
	C505.849579,818.873047 509.549835,813.796143 513.824890,808.235657 
	C514.204651,806.819824 514.584351,805.403931 515.546753,803.496277 
	C515.952454,802.073486 516.383850,800.657532 516.760010,799.226929 
	C522.204407,778.522156 519.903809,760.083252 501.450928,746.235657 
	C500.621460,745.613159 500.217621,743.719238 500.408905,742.547058 
	C502.989929,726.732117 505.711823,710.940125 508.874329,694.771484 
	C508.861664,694.179626 508.848999,693.587708 509.149292,692.293274 
	C511.420471,684.125671 513.691650,675.958130 515.929199,667.911194 
	C517.396057,668.846924 519.177002,669.983093 521.102966,671.635376 
	C521.480896,671.061646 521.858765,670.487976 522.440735,669.175415 
	C522.373901,668.851196 522.410645,668.442200 522.224915,668.215454 
	C519.188538,664.509644 515.887817,660.977844 519.878357,655.791443 
	C520.583130,654.875488 519.959045,652.888123 519.847900,651.403076 
	C519.589233,647.947205 519.312622,644.491394 518.965820,641.043396 
	C517.958374,631.027832 516.912720,621.016174 516.021179,610.170105 
	C515.659668,607.787598 515.298157,605.405029 515.029968,602.184570 
	C513.290894,590.791321 511.551849,579.398132 509.952515,567.431396 
	C509.747620,566.910217 509.542755,566.389038 509.236633,565.038208 
	C507.195923,555.691162 505.155243,546.344055 503.530579,536.606995 
	C503.350372,535.739197 503.170166,534.871460 503.014801,533.281616 
	C502.586456,532.593323 502.313599,531.689514 501.705322,531.250549 
	C496.550201,527.530579 491.422760,523.759155 486.101501,520.287476 
	C483.092468,518.324280 478.756256,519.853455 477.153778,523.003906 
	C475.516083,526.223633 476.790833,530.034119 480.162659,531.885620 
	C482.728180,533.294434 485.319702,534.656006 488.130493,536.610107 
	C489.106781,537.339722 490.083069,538.069397 491.336853,539.440979 
	C492.891479,542.115234 494.842041,544.639221 495.924591,547.492554 
	C498.868652,555.252441 501.445435,563.151611 504.027679,571.578125 
	C504.275024,572.083313 504.522339,572.588562 504.832703,573.826782 
	C504.953827,574.549438 505.074951,575.272095 505.077362,576.574402 
	C505.342621,577.066528 505.607880,577.558655 505.899658,578.898254 
	C507.778931,595.169006 509.986389,611.411316 511.404358,627.722168 
	C512.156311,636.371887 511.537506,645.140747 511.537506,654.888611 
	C508.594788,651.524170 506.381134,648.993347 503.688293,646.025452 
	C500.123291,644.835754 497.215118,645.482605 494.928101,649.693176 
	C494.499817,651.534607 494.071564,653.376038 493.438171,656.099487 
	C488.496429,649.538513 482.718567,648.569946 476.374237,651.942200 
	C476.374237,635.611938 476.374237,619.872742 476.822052,603.742981 
	C476.823242,603.160522 476.824432,602.578003 476.977295,601.341492 
	C476.983307,600.893860 476.989319,600.446289 477.514160,599.685486 
	C477.677582,599.124146 477.841034,598.562805 478.536224,597.475647 
	C478.376648,595.555908 478.520630,593.547485 477.991394,591.735779 
	C477.028442,588.439270 475.993073,585.080505 474.358521,582.091919 
	C473.202545,579.978394 471.270111,577.487366 469.200928,576.916199 
	C467.378540,576.413208 463.927063,577.748535 462.941193,579.348206 
	C461.810242,581.183411 462.118195,584.312622 462.651093,586.689148 
	C464.222107,593.695312 467.421173,600.543518 467.791687,607.569153 
	C468.596191,622.823608 468.039795,638.149841 468.039795,653.803833 
	C464.960144,654.595947 461.981964,655.362000 458.251556,656.010010 
	C457.498901,656.080933 456.746246,656.151855 455.157013,656.130676 
	C435.825989,655.893127 416.495117,655.639343 397.163788,655.429443 
	C392.455902,655.378357 387.700623,655.078552 383.051666,655.619568 
	C379.081879,656.081604 376.902191,659.016663 377.643829,663.097229 
	C378.376251,667.127380 381.179840,668.839478 385.296326,668.362732 
	C387.265625,668.134521 389.250763,668.042969 391.228729,667.889526 
	C391.154083,668.312622 391.079407,668.735779 390.273132,669.015259 
	C388.847229,669.397400 387.421356,669.779602 385.182709,670.033997 
	C373.875336,672.039368 362.623138,675.046570 350.998077,671.180115 
	C350.930573,670.451477 350.863098,669.722778 350.963593,668.194092 
	C351.044708,665.484314 351.693848,662.638367 351.084137,660.094116 
	C349.948486,655.355103 348.375427,650.659790 346.389618,646.211853 
	C345.426819,644.055359 343.397522,641.569275 341.336060,640.951782 
	C339.532532,640.411682 336.069794,641.669189 335.049561,643.241760 
	C333.882172,645.041138 334.102142,648.174622 334.618469,650.531494 
	C335.411285,654.150635 337.455383,657.516296 338.094879,661.143555 
	C339.095459,666.819275 339.120605,672.662048 340.010040,678.363647 
	C341.060333,685.096130 345.010895,687.168884 351.409424,684.842224 
	C353.471771,684.092285 355.551483,683.390076 358.547516,682.343018 
	C351.598053,700.435913 357.485443,718.045654 355.257507,735.957764 
	C354.830170,735.994995 354.402832,736.032227 354.078827,735.181519 
	C354.078827,732.926392 354.078827,730.671326 354.078827,728.809814 
	C351.629608,727.853882 349.712677,727.105652 347.441010,725.967834 
	C346.980469,725.758240 346.519928,725.548645 346.059357,725.339111 
	C346.055481,725.888000 346.051636,726.436890 345.866302,727.909424 
	C345.965363,737.245178 346.064423,746.580933 346.009583,756.401733 
	C346.308319,756.946960 346.607086,757.492188 346.950928,758.782593 
	C349.090393,760.681580 351.229828,762.580566 353.577820,764.664612 
	C352.469879,765.240356 350.701080,765.940063 349.173584,766.990601 
	C341.860809,772.020081 333.724365,776.250671 327.523529,782.417175 
	C313.610504,796.253296 319.825775,817.227844 338.816193,820.835876 
	C348.326019,822.642517 358.255585,822.240356 368.659515,822.994507 
	C369.107941,822.939880 369.556396,822.885315 370.859222,822.974670 
	C378.496155,821.322266 386.429901,820.478149 393.694092,817.810669 
	C402.557648,814.555908 408.568695,807.890930 410.635590,797.717041 
	C410.681793,797.142456 410.727966,796.567871 410.965851,795.116150 
	C412.313232,782.392334 404.717102,775.172974 395.592194,772.458984 
	C394.727356,772.330383 393.862488,772.201782 392.504761,771.581421 
	C390.357544,770.200684 388.378326,768.271301 386.028656,767.551514 
	C380.897858,765.979858 375.580322,765.015930 370.335907,763.817810 
	C367.134949,763.086548 363.928070,762.381287 360.248444,761.557983 
	C360.857605,747.977600 361.047485,733.679749 362.302307,719.476074 
	C363.077789,710.698486 365.253571,702.012939 367.248535,693.389771 
	C368.080719,689.792786 371.035889,686.524902 371.256012,682.997070 
	C371.450134,679.885864 372.752716,679.401306 374.823700,679.075806 
	C380.531219,678.178955 386.265472,677.452087 392.540649,676.749023 
	C393.027069,676.499207 393.513489,676.249390 394.838531,676.054688 
	C397.771881,675.705078 400.910858,675.874084 403.565582,674.821594 
	C405.304749,674.132080 406.343262,671.675293 407.759247,669.274536 
	C407.128418,668.059082 406.497620,666.843567 406.717224,665.669495 
	C417.140076,665.422668 427.579773,665.460388 437.980804,664.845093 
	C447.501251,664.281982 456.979950,663.013184 466.095123,662.923340 
	C465.948242,666.504211 468.558746,664.466675 470.646729,664.997375 
M341.529785,508.424469 
	C338.023041,511.082886 337.623962,514.262878 339.733948,518.028748 
	C340.607880,519.588501 341.700134,521.346069 341.707123,523.017822 
	C341.743622,531.755371 347.632416,537.450256 352.196808,543.800659 
	C354.832642,547.467896 358.834137,548.073486 361.604858,545.667480 
	C364.308197,543.319946 364.489319,539.430847 361.307892,536.462952 
	C355.252258,530.813721 354.647125,522.886841 351.922394,515.831970 
	C350.880371,513.133850 349.528717,510.555389 349.321594,507.705933 
	C366.632446,507.807281 383.943451,507.885956 401.254059,508.017426 
	C414.246857,508.116089 427.240540,508.202026 440.231171,508.440094 
	C455.109650,508.712738 462.911865,503.030731 466.960541,488.569366 
	C470.678955,475.287598 474.340912,461.989716 477.955078,448.679169 
	C480.784271,438.259583 480.735626,438.273315 491.288910,438.007599 
	C502.654602,437.721497 512.873291,433.648865 522.561279,428.124084 
	C527.723755,425.180054 529.957336,420.423035 530.045532,414.458496 
	C530.169067,406.105774 527.361938,398.580811 523.845276,391.259399 
	C517.178955,377.380554 506.953461,369.288177 490.661072,369.777130 
	C485.166504,369.942017 479.173706,368.795868 474.149261,366.573975 
	C456.507782,358.772827 441.763428,347.596252 433.996368,328.968842 
	C433.169281,326.985321 430.238983,324.925659 428.110870,324.722961 
	C426.223358,324.543213 422.899475,326.526154 422.369141,328.227539 
	C421.678436,330.443634 422.657715,333.544434 423.762634,335.861969 
	C425.083740,338.632904 427.075165,341.182129 429.171112,343.464813 
	C433.138733,347.785889 436.801483,352.783325 441.643982,355.821167 
	C451.389526,361.934906 461.841522,366.922485 473.091614,372.959381 
	C467.975769,377.693542 463.100769,381.846558 458.707031,386.458160 
	C457.090851,388.154480 455.526642,391.145325 455.918915,393.160248 
	C456.311737,395.178131 458.995697,397.824127 461.008331,398.152039 
	C463.042877,398.483582 465.980438,396.803589 467.647705,395.132233 
	C471.243958,391.527100 474.149109,387.244415 477.581543,383.460754 
	C480.940918,379.757690 485.248535,379.813416 489.433228,381.702881 
	C493.475372,383.527954 497.368408,385.718933 501.197479,387.969452 
	C504.427551,389.867950 507.511322,391.485718 511.430115,387.315216 
	C514.105164,393.793274 516.969666,399.203125 518.522766,404.966400 
	C519.803284,409.718231 521.562744,415.654663 516.632385,419.315979 
	C507.337830,426.218109 496.666473,429.405273 484.221954,428.996155 
	C485.301331,426.713593 486.082245,425.135864 486.799835,423.529846 
	C488.480896,419.767365 487.332855,416.183960 483.988342,414.657471 
	C480.707977,413.160339 476.937469,414.657227 475.462646,418.409821 
	C474.631439,420.524689 474.591003,422.937775 473.938507,425.140717 
	C473.610413,426.248352 472.949432,427.644409 472.029419,428.123627 
	C467.693146,430.382141 466.459351,433.102448 469.832642,437.202423 
	C470.309814,437.782379 470.257965,439.096497 470.003662,439.935181 
	C464.953308,456.591766 460.017181,473.287292 454.607452,489.827576 
	C453.253540,493.967102 449.870880,496.877777 444.914215,497.088379 
	C440.934906,497.257446 436.962372,497.988251 432.993774,497.936676 
	C417.677521,497.737671 402.365509,497.177185 387.049194,497.025269 
	C362.270264,496.779449 337.527344,497.139435 312.786194,494.264618 
	C292.032074,491.853058 271.059326,491.319733 250.182404,489.970245 
	C240.320297,489.332764 233.913940,484.631042 233.168961,475.953339 
	C232.376312,466.720245 232.754608,457.383698 232.694382,448.091858 
	C232.664719,443.516388 232.892303,438.938629 232.832306,434.364166 
	C232.776077,430.077759 232.766251,425.758240 232.205292,421.523621 
	C231.888031,419.128479 231.119507,415.944489 229.423798,414.819092 
	C227.725479,413.691895 224.619370,414.656891 222.132477,414.758087 
	C220.671646,414.817505 218.894485,415.580505 217.808350,415.000092 
	C210.559692,411.126984 202.356461,408.135895 196.576553,402.637024 
	C188.531204,394.982910 182.309250,385.404846 175.414352,376.566406 
	C174.984390,376.015228 175.566513,374.733429 175.539978,373.795471 
	C175.494812,372.197205 175.427094,370.590546 175.217346,369.007477 
	C173.851578,358.699097 171.142853,348.372162 171.331879,338.096527 
	C171.688644,318.703918 173.008636,299.260925 175.247360,279.992126 
	C177.122040,263.856781 184.531555,249.968414 196.958984,238.953506 
	C198.534348,237.557220 199.514999,233.945190 198.858170,232.008484 
	C198.197586,230.060684 195.173462,227.792816 193.138672,227.747513 
	C191.095261,227.702026 188.507507,229.837326 187.023346,231.704498 
	C184.175674,235.287048 181.985626,239.386383 179.439545,243.216019 
	C175.850204,248.614883 169.403183,252.165344 169.155365,259.735352 
	C169.014221,264.045868 168.334747,268.335999 168.006638,272.643616 
	C166.908279,287.064484 165.372726,301.473755 164.917191,315.916290 
	C164.379181,332.972687 164.790909,350.059082 164.790909,367.644501 
	C159.924820,370.831604 159.008453,374.871887 162.502151,378.819824 
	C165.864227,382.619019 168.760941,386.825928 171.972412,390.763733 
	C175.395828,394.961456 178.328979,399.893616 182.570053,403.022278 
	C192.264389,410.173767 202.578934,416.494537 212.751282,422.980652 
	C215.162445,424.518036 218.005890,425.377441 220.799591,426.614777 
	C221.189056,441.145111 221.545227,456.081085 222.024002,471.013153 
	C222.129578,474.305542 222.377289,477.646332 223.061127,480.858002 
	C225.839493,493.907043 234.204880,500.749725 247.482605,501.165253 
	C255.972824,501.430939 264.475800,501.536591 272.947479,502.099182 
	C295.966614,503.627808 318.972168,505.361481 342.445160,507.496185 
	C342.340424,507.692627 342.235657,507.889099 341.529785,508.424469 
M316.934753,581.396240 
	C312.649872,586.241089 316.839050,591.576660 316.141083,596.691040 
	C315.608765,600.591553 318.512970,602.955872 322.368286,602.769653 
	C325.930939,602.597534 328.275787,600.322632 327.988800,596.506226 
	C327.346313,587.963196 329.120819,580.278015 334.509766,573.367065 
	C336.912689,570.285400 335.244202,565.687500 331.835876,564.072571 
	C328.321472,562.407349 324.383881,564.000366 322.876617,567.810303 
	C322.394287,569.029480 322.526550,570.546448 321.883301,571.635132 
	C320.754211,573.545898 319.243805,575.231384 317.656494,576.205139 
	C320.036316,563.788452 325.163879,552.853088 334.211670,543.753357 
	C335.714111,542.242249 336.440613,538.730896 335.799500,536.684692 
	C335.230957,534.869995 332.242157,532.677856 330.358337,532.711243 
	C328.217102,532.749390 325.502045,534.617188 324.112427,536.488647 
	C319.806183,542.287659 316.298157,548.684937 311.923065,554.425415 
	C308.624939,558.752808 308.443909,563.102173 309.700348,567.942688 
	C310.653320,571.614075 311.550018,575.300110 312.685059,579.831177 
	C313.313721,579.940918 315.185364,580.267700 316.934753,581.396240 
M427.156525,128.604691 
	C429.802490,122.624718 429.484558,121.470894 424.185608,117.289253 
	C423.013397,116.364235 421.896484,115.357262 420.833374,114.307739 
	C408.554993,102.186005 393.402039,97.047737 376.545227,95.986465 
	C357.368683,94.779152 339.065674,98.867081 321.055450,104.934929 
	C292.828247,114.445007 267.503021,129.626831 242.387817,145.190994 
	C240.447250,146.393570 239.168625,148.861618 237.920944,150.944336 
	C235.219818,155.453278 233.241821,160.485291 230.050217,164.589661 
	C225.150253,170.891022 225.006378,173.042740 230.558960,177.405457 
	C230.316010,182.630844 230.863403,187.578949 229.734558,192.109390 
	C225.806076,207.875397 221.389420,223.523071 216.936554,239.152542 
	C215.950714,242.612778 214.833740,245.968338 219.072357,247.475082 
	C223.533539,249.060913 224.836945,245.389572 225.757660,242.124847 
	C230.572311,225.052841 235.221069,207.933762 240.102249,190.881073 
	C240.983704,187.801651 242.680298,184.955551 244.000565,182.001740 
	C243.811356,185.934784 242.652374,189.481094 242.145386,193.118256 
	C240.709015,203.423019 239.617752,213.775543 238.226242,224.087067 
	C237.669205,228.215027 239.441589,231.647232 242.858673,232.165756 
	C246.612198,232.735306 249.110657,230.372299 249.495743,225.903961 
	C249.994064,220.121414 250.078018,214.263809 251.096786,208.573944 
	C253.004013,197.921967 255.158951,187.407013 260.126648,177.454926 
	C262.050964,173.599838 260.380585,167.816010 259.874939,162.960068 
	C259.712250,161.397812 258.078644,159.961594 257.028778,158.533264 
	C256.650909,158.019150 255.997452,157.330536 255.493408,157.349503 
	C252.885223,157.447601 250.284698,157.749084 247.702103,157.977859 
	C250.578339,150.565125 256.452576,145.692566 262.648010,141.264954 
	C290.495300,121.363762 320.751251,107.456238 355.235382,103.748856 
	C379.526886,101.137299 401.056244,105.365913 417.163879,125.746597 
	C418.854279,127.885437 422.404755,128.554153 425.017120,130.676483 
	C413.619019,135.490982 399.939575,136.443329 393.335846,149.387192 
	C393.193878,149.665451 392.705231,149.806259 392.636963,150.076508 
	C392.024292,152.502304 390.531555,155.238068 391.177765,157.290802 
	C391.754364,159.122345 394.733276,161.347290 396.616150,161.314835 
	C398.769043,161.277710 401.828186,159.437317 402.842804,157.511002 
	C406.498016,150.571472 411.784882,145.509766 418.750000,142.363937 
	C431.807800,136.466309 444.805573,130.322449 458.240906,125.409294 
	C469.336670,121.351707 480.779419,117.981041 493.095856,119.717293 
	C504.352478,121.304138 513.464966,126.819916 522.111511,133.572876 
	C524.946167,135.786713 528.035339,136.633591 530.382812,133.402328 
	C532.705994,130.204468 531.260498,127.321892 527.998291,125.559578 
	C521.322510,121.953102 514.793884,117.937088 507.797913,115.088570 
	C492.683289,108.934410 477.545990,111.607254 462.721619,116.597160 
	C451.028809,120.532974 439.498627,124.952011 427.156525,128.604691 
M353.044373,619.467041 
	C354.074646,618.643127 355.324158,617.984558 356.093750,616.964050 
	C358.301270,614.036743 358.114227,611.010132 355.544739,608.421021 
	C352.943085,605.799438 349.577576,605.425720 347.044525,607.964783 
	C341.945282,613.076111 337.116516,618.492188 332.533661,624.075989 
	C325.433533,632.726746 318.632629,641.623169 311.162933,651.103149 
	C311.047150,648.628662 310.981567,647.168030 310.910034,645.707581 
	C310.148285,630.155884 308.078583,614.596558 312.481567,599.143494 
	C312.986145,597.372620 310.701965,593.538879 308.779083,592.627747 
	C305.509949,591.078613 301.502625,591.075317 297.797150,590.473877 
	C297.334198,590.398743 296.824310,590.673462 296.329865,590.721863 
	C291.913788,591.154480 287.500824,591.632019 283.077423,591.972595 
	C280.431732,592.176331 277.564056,591.540833 275.147552,592.342163 
	C260.678741,597.140198 246.259521,602.101746 231.936523,607.318359 
	C226.044907,609.464050 223.112564,618.455261 225.806061,623.141235 
	C228.861053,628.456055 231.914124,633.903198 233.933456,639.655884 
	C238.654221,653.104431 242.740479,666.775146 247.115662,680.345581 
	C249.150070,686.655701 253.607880,689.461365 258.211456,686.696838 
	C265.062531,682.582703 272.467163,681.530396 280.076904,681.975952 
	C296.273590,682.924194 307.835114,675.871460 315.209625,661.912659 
	C324.238373,644.822510 338.757233,632.761780 353.044373,619.467041 
M102.075317,460.467529 
	C85.275887,445.589447 72.347649,428.074493 65.535851,406.458069 
	C61.266972,392.911316 60.361996,378.888977 59.551605,364.803253 
	C58.246746,342.122925 58.839508,319.490143 62.798725,297.182068 
	C66.395973,276.913483 71.117401,256.805389 76.258385,236.862442 
	C80.216599,221.507690 82.329163,205.545837 90.006897,191.241333 
	C91.824471,187.854980 90.018501,184.693329 86.564217,183.005371 
	C83.245102,181.383453 79.022728,182.912094 78.020760,186.629013 
	C75.938911,194.351852 72.107552,201.228729 72.456276,210.127869 
	C72.873230,220.768356 69.569176,231.618637 67.405205,242.282349 
	C63.470417,261.672455 57.824226,280.824188 55.416782,300.386047 
	C52.785385,321.767731 52.473244,343.495178 52.219162,365.084473 
	C52.085312,376.457703 52.930710,388.170898 55.584553,399.188477 
	C64.422478,435.879608 85.443008,464.196533 118.277618,482.873474 
	C133.094849,491.301880 149.046738,497.744263 164.527100,504.995361 
	C177.106445,510.887573 187.630005,519.310730 195.943680,530.404480 
	C203.142944,540.011169 207.861984,550.838745 211.010834,562.388489 
	C212.225357,566.843262 215.120697,568.874512 218.450699,567.778381 
	C221.764877,566.687500 222.806870,563.267029 221.006546,559.082764 
	C218.991745,554.399963 216.700882,549.826843 214.873062,545.074158 
	C205.188385,519.892151 187.872604,502.123657 162.753250,492.471375 
	C141.435928,484.279999 120.295578,475.962677 102.075317,460.467529 
M233.013458,360.522644 
	C230.054367,355.972931 227.302933,351.266418 224.041000,346.945312 
	C222.597382,345.032959 220.137283,342.763306 218.107407,342.732788 
	C216.057648,342.701996 212.934326,344.842773 212.190399,346.769348 
	C211.454575,348.674927 212.676971,351.729523 213.817184,353.865448 
	C215.190338,356.437775 217.891815,358.332336 219.124573,360.942413 
	C222.755905,368.630951 228.738647,373.994690 235.742844,378.212189 
	C249.316849,386.385773 263.040253,394.317291 276.835297,402.112762 
	C279.696533,403.729614 280.201660,405.461884 279.822266,408.475250 
	C279.394562,411.872223 279.337372,415.432251 279.854919,418.808594 
	C281.097626,426.916382 282.696564,434.973022 284.297424,443.021301 
	C285.297668,448.049988 288.536560,451.039246 292.482574,450.956848 
	C296.386871,450.875305 305.906952,444.555573 306.830566,440.645630 
	C308.422119,433.908234 309.928436,427.051697 310.376068,420.173920 
	C310.744049,414.520050 309.616333,408.752563 308.982483,403.054230 
	C308.349365,397.362122 306.205505,392.513580 300.584747,389.997528 
	C295.037231,387.514282 290.793213,390.415710 286.392548,393.263977 
	C285.069061,394.120575 282.680695,394.626495 281.378571,394.016235 
	C271.127686,389.211853 260.800140,384.492126 250.944321,378.949524 
	C243.550171,374.791290 237.209930,369.074371 233.013458,360.522644 
M407.672668,449.953796 
	C408.450195,447.451782 409.682068,444.992737 409.923523,442.440033 
	C410.785187,433.330261 411.445862,424.195526 411.910889,415.056427 
	C412.178253,409.801697 412.237885,404.494415 411.807831,399.258698 
	C411.426697,394.618774 404.368683,388.800293 400.278625,389.109161 
	C396.274567,389.411530 393.176331,393.193146 393.032166,398.399292 
	C392.623718,413.151733 392.307434,427.907013 392.038452,442.662659 
	C392.005859,444.449402 391.947784,446.598785 392.843140,447.961243 
	C394.532318,450.531647 396.646637,454.113037 399.070496,454.544861 
	C401.461578,454.970856 404.454315,452.019897 407.672668,449.953796 
M361.036957,346.436523 
	C362.905457,348.310760 364.545898,350.509033 366.677643,352.009186 
	C388.469604,367.344177 410.348297,382.555847 432.181305,397.832642 
	C434.665009,399.570526 437.183899,400.268829 439.061066,397.417450 
	C440.989777,394.487762 439.196869,392.476135 436.595398,390.989563 
	C431.728943,388.208679 426.791595,385.539673 422.034302,382.581940 
	C397.742676,367.479370 374.138092,351.644348 360.236572,325.276733 
	C358.395660,321.784943 353.664734,321.502869 350.705353,324.084534 
	C347.752472,326.660522 347.798889,330.829590 350.503815,333.810333 
	C354.032379,337.698700 357.343658,341.784271 361.036957,346.436523 
M286.805450,318.218109 
	C282.808319,322.079712 282.528931,325.052643 285.240417,328.534149 
	C288.447998,332.652588 291.175079,337.143341 294.345886,341.292847 
	C297.928986,345.981873 301.060089,351.413177 305.633453,354.876923 
	C321.734619,367.071625 338.383636,378.542023 354.788666,390.337463 
	C357.383270,392.203003 360.022003,393.255920 362.051514,390.080597 
	C364.153900,386.791290 361.709106,385.017761 359.084656,383.457184 
	C351.981415,379.233490 345.051453,374.704285 337.833557,370.690430 
	C319.395111,360.436981 308.192230,343.754883 297.830292,326.281830 
	C297.254547,325.311005 296.904205,324.185089 296.574585,323.093445 
	C295.177917,318.467987 292.249725,316.602905 286.805450,318.218109 
M387.720764,543.801514 
	C383.130890,543.462219 378.535461,542.822510 373.953369,542.906860 
	C371.562866,542.950867 368.461212,543.614258 367.038147,545.209045 
	C365.778961,546.620239 365.393250,550.451660 366.441315,551.873047 
	C367.808350,553.727112 370.875763,554.722229 373.384796,555.229004 
	C375.916504,555.740356 378.908356,554.465759 381.265137,555.259949 
	C388.836670,557.811462 395.528381,555.642273 402.026093,552.209473 
	C406.085968,550.064514 409.996185,547.585876 413.775299,544.970520 
	C421.533173,539.601624 429.186523,534.079773 436.822021,528.536987 
	C439.587097,526.529785 440.828033,523.840210 438.349426,520.880981 
	C436.060150,518.147827 433.360199,518.809937 430.875244,520.861267 
	C429.978851,521.601196 429.223358,522.515015 428.311371,523.232239 
	C422.195251,528.041992 416.370483,533.318848 409.830994,537.466248 
	C403.501862,541.480164 396.584167,544.877258 387.720764,543.801514 
M513.511597,362.968079 
	C523.248169,370.716705 533.004395,378.440796 542.708069,386.230316 
	C545.285828,388.299622 547.822754,389.011780 549.964722,385.984833 
	C552.001953,383.105896 550.305725,380.967346 547.862549,379.358429 
	C544.551453,377.177979 541.038513,375.285309 537.839294,372.957001 
	C520.733459,360.507568 502.570557,349.013306 496.883362,326.408844 
	C495.929291,322.616852 491.145782,321.358582 487.770233,323.262909 
	C484.418396,325.153870 483.576599,329.313812 485.638733,332.770996 
	C492.688934,344.590790 501.652557,354.625305 513.511597,362.968079 
M531.743958,191.239426 
	C535.401855,190.432968 539.364807,189.680069 538.516235,184.590179 
	C537.910583,180.957809 534.572205,180.523209 529.071960,182.703369 
	C524.188904,184.638870 519.231873,186.408081 514.239563,188.043045 
	C506.086639,190.713104 497.983459,193.560898 489.097565,191.131012 
	C487.313446,190.643158 484.834320,191.555023 483.032043,192.500732 
	C478.536194,194.859894 474.245270,197.609695 469.872314,200.203049 
	C466.636993,202.121719 465.490784,206.174683 467.304321,209.281509 
	C469.246216,212.608276 473.835144,213.877747 476.759155,211.202393 
	C482.447479,205.997818 489.173645,203.577744 496.470123,201.693604 
	C508.084259,198.694565 519.523560,195.018509 531.743958,191.239426 
M545.844238,321.362183 
	C544.196594,321.560730 542.518860,322.066040 540.906311,321.907593 
	C531.245850,320.958374 521.586487,319.967102 511.956207,318.755768 
	C507.594177,318.207062 504.454559,319.821136 503.623627,323.686646 
	C502.849457,327.288300 505.159363,331.227173 508.848206,331.296051 
	C516.201050,331.433319 523.574524,331.102753 530.921448,330.663452 
	C535.190552,330.408203 539.408447,329.353516 543.677490,329.030212 
	C554.594421,328.203430 565.531067,327.639404 576.451050,326.849060 
	C579.661926,326.616669 582.628418,325.465881 582.056824,321.455261 
	C581.500061,317.549561 578.725769,317.381165 575.314819,317.850952 
	C565.821716,319.158325 556.281799,320.125275 545.844238,321.362183 
M513.209839,266.404907 
	C517.236938,265.609863 521.324463,265.039337 525.279541,263.976410 
	C535.879333,261.127747 546.479675,258.247833 556.932556,254.918320 
	C558.706848,254.353165 560.548401,251.620804 560.853027,249.656143 
	C561.056335,248.345245 558.866577,246.018311 557.232971,245.270218 
	C555.911255,244.664917 553.730713,245.494110 552.086670,246.105438 
	C541.992249,249.859085 532.257385,255.297409 520.805847,252.156723 
	C519.971619,251.927933 518.904541,252.507751 517.954773,252.747284 
	C513.047852,253.984680 508.023010,254.902328 503.292816,256.626953 
	C501.124786,257.417389 498.751007,259.493561 497.939850,261.562683 
	C497.305481,263.181000 498.306152,266.594330 499.716492,267.573242 
	C501.553040,268.847961 504.530914,268.861328 506.984131,268.740051 
	C508.849640,268.647766 510.662872,267.498962 513.209839,266.404907 
M348.625824,477.661163 
	C354.694824,476.256866 357.662415,471.531189 354.430023,467.663300 
	C352.968781,465.914795 349.530243,464.601654 347.365356,465.023529 
	C345.456421,465.395538 343.141144,468.246094 342.661713,470.375183 
	C341.836517,474.039520 344.154449,476.577393 348.625824,477.661163 
M478.993561,693.338989 
	C480.142914,694.996155 481.292236,696.653381 482.571594,698.497986 
	C484.363098,697.455200 485.703430,696.675049 488.511108,695.040710 
	C484.447876,693.975464 481.744080,693.266602 478.993561,693.338989 
z"/>
<path fill="#FFFFFF" opacity="1.000000" stroke="none" 
	d="
M515.882080,611.002930 
	C516.912720,621.016174 517.958374,631.027832 518.965820,641.043396 
	C519.312622,644.491394 519.589233,647.947205 519.847900,651.403076 
	C519.959045,652.888123 520.583130,654.875488 519.878357,655.791443 
	C515.887817,660.977844 519.188538,664.509644 522.224915,668.215454 
	C522.410645,668.442200 522.373901,668.851196 522.064697,669.673828 
	C521.445068,670.487854 521.201538,670.803528 520.958008,671.119202 
	C519.177002,669.983093 517.396057,668.846924 515.929199,667.911194 
	C513.691650,675.958130 511.420471,684.125671 508.692322,692.698608 
	C508.289856,693.783508 508.344330,694.462952 508.398834,695.142456 
	C505.711823,710.940125 502.989929,726.732117 500.408905,742.547058 
	C500.217621,743.719238 500.621460,745.613159 501.450928,746.235657 
	C519.903809,760.083252 522.204407,778.522156 516.760010,799.226929 
	C516.383850,800.657532 515.952454,802.073486 514.862671,803.842041 
	C513.869141,805.698242 513.559631,807.208740 513.250122,808.719238 
	C509.549835,813.796143 505.849579,818.873047 501.438660,823.998535 
	C499.514252,825.104248 498.300507,826.161438 497.086731,827.218628 
	C492.730743,829.177917 488.374725,831.137146 483.312317,832.966736 
	C481.403503,833.206238 480.201019,833.575317 478.998535,833.944397 
	C473.941772,833.957092 468.885040,833.969727 463.353363,833.562439 
	C461.261169,832.732666 459.643921,832.322876 458.026672,831.913086 
	C450.703522,828.691284 446.669739,821.989014 447.256775,812.684814 
	C448.112213,799.126465 451.862000,786.546631 461.932281,776.094910 
	C462.997955,775.294128 463.408691,774.612793 463.819458,773.931458 
	C468.440186,769.595154 464.430542,765.319031 463.312408,760.590454 
	C462.422638,760.030334 461.949951,759.899597 461.477295,759.768860 
	C461.793701,760.237061 462.110107,760.705261 462.426514,761.173523 
	C460.636658,764.200012 458.191528,766.231567 454.777771,764.002563 
	C451.570862,761.908447 452.300720,759.000061 455.096130,756.158386 
	C456.509705,755.251099 457.203461,754.496765 457.897217,753.742432 
	C459.705109,752.218872 460.237488,750.604858 458.961639,748.315491 
	C456.874481,744.570435 455.078979,740.662903 453.391663,736.387085 
	C453.233398,735.693298 452.843903,735.436279 452.454407,735.179199 
	C447.725983,728.113770 442.997528,721.048401 438.540741,713.474426 
	C438.863312,711.416687 438.914185,709.867554 438.965057,708.318420 
	C437.629395,708.917786 436.293732,709.517151 434.958069,710.116577 
	C431.249847,708.739319 427.541656,707.362000 423.360077,705.594482 
	C421.923035,705.415039 420.959381,705.625793 419.995728,705.836548 
	C410.515900,707.818420 408.441010,709.670105 408.193390,719.751953 
	C407.928497,730.536377 408.617645,741.348694 409.084320,752.140503 
	C409.139221,753.409973 410.386902,754.647400 411.140320,755.863342 
	C413.281616,759.319336 413.200531,762.629456 409.867371,765.133972 
	C406.547516,767.628357 403.309143,766.861023 400.636719,763.784668 
	C397.101746,759.715454 396.003937,755.445374 396.722198,749.699585 
	C397.994354,739.522095 397.851807,729.145630 397.954742,718.849060 
	C398.120331,702.285217 404.636169,694.950378 421.389771,694.313538 
	C426.445190,694.121277 431.585022,696.149902 436.853210,697.885986 
	C438.102875,699.371582 439.185516,700.132385 440.268188,700.893188 
	C446.090088,710.197693 452.074432,719.405884 457.673615,728.842529 
	C461.096649,734.611572 463.927979,740.731750 467.063873,746.768982 
	C471.159302,745.409790 475.230591,744.329529 479.036255,742.648132 
	C480.361328,742.062683 481.637726,740.091309 481.885529,738.580566 
	C482.657349,733.874756 482.925995,729.086426 483.415100,724.070618 
	C484.313660,724.070618 485.434113,724.070618 486.807190,724.734619 
	C486.955627,726.467285 486.851440,727.535889 486.763062,728.442078 
	C488.909119,728.640503 490.875671,728.822327 492.842224,729.004150 
	C492.886261,731.403198 492.930267,733.802185 492.649780,736.855896 
	C492.451569,738.198364 492.577820,738.886108 492.704102,739.573914 
	C493.148712,738.753967 493.593292,737.934021 494.037872,737.114075 
	C495.459351,727.341248 497.161743,717.598755 498.219421,707.786743 
	C499.180817,698.867737 499.338409,689.864563 500.080383,680.917664 
	C500.275238,678.568359 501.580261,676.327637 501.925934,673.971130 
	C502.634155,669.142700 503.037994,664.269653 503.590820,659.197815 
	C494.208801,658.204407 485.612061,661.001282 477.108368,664.336487 
	C475.627838,664.917114 474.087891,665.346252 472.238953,665.124390 
	C470.935028,663.936340 469.967499,663.469421 468.880188,662.788330 
	C467.999268,662.401123 467.238129,662.228210 466.477020,662.055298 
	C456.979950,663.013184 447.501251,664.281982 437.980804,664.845093 
	C427.579773,665.460388 417.140076,665.422668 406.054718,665.450684 
	C404.193848,665.451355 402.995483,665.670959 400.812408,666.070923 
	C403.729858,667.740540 405.712708,668.875244 407.695587,670.010010 
	C406.343262,671.675293 405.304749,674.132080 403.565582,674.821594 
	C400.910858,675.874084 397.771881,675.705078 394.270416,675.806091 
	C393.131256,675.924316 392.560211,676.291138 391.989136,676.658020 
	C386.265472,677.452087 380.531219,678.178955 374.823700,679.075806 
	C372.752716,679.401306 371.450134,679.885864 371.256012,682.997070 
	C371.035889,686.524902 368.080719,689.792786 367.248535,693.389771 
	C365.253571,702.012939 363.077789,710.698486 362.302307,719.476074 
	C361.047485,733.679749 360.857605,747.977600 360.248444,761.557983 
	C363.928070,762.381287 367.134949,763.086548 370.335907,763.817810 
	C375.580322,765.015930 380.897858,765.979858 386.028656,767.551514 
	C388.378326,768.271301 390.357544,770.200684 392.752502,772.182373 
	C393.216919,773.731689 393.433624,774.679993 393.780426,776.197510 
	C394.790649,774.733215 395.385620,773.870789 395.980591,773.008301 
	C404.717102,775.172974 412.313232,782.392334 410.586273,795.600342 
	C410.186646,796.740540 410.166565,797.396484 410.146484,798.052490 
	C408.568695,807.890930 402.557648,814.555908 393.694092,817.810669 
	C386.429901,820.478149 378.496155,821.322266 370.386505,822.622681 
	C369.594330,821.978821 369.274872,821.686890 368.955383,821.394958 
	C368.635345,821.875671 368.315308,822.356445 367.995300,822.837158 
	C358.255585,822.240356 348.326019,822.642517 338.816193,820.835876 
	C319.825775,817.227844 313.610504,796.253296 327.523529,782.417175 
	C333.724365,776.250671 341.860809,772.020081 349.173584,766.990601 
	C350.701080,765.940063 352.469879,765.240356 353.577820,764.664612 
	C351.229828,762.580566 349.090393,760.681580 347.178833,758.198853 
	C346.992310,757.048950 346.577881,756.482788 346.163483,755.916687 
	C346.064423,746.580933 345.965363,737.245178 346.405243,727.321777 
	C347.228027,726.608521 347.511902,726.483032 347.795746,726.357483 
	C349.712677,727.105652 351.629608,727.853882 354.078827,728.809814 
	C354.078827,730.671326 354.078827,732.926392 354.015259,736.040771 
	C354.312134,739.229187 354.672546,741.558289 355.032990,743.887329 
	C356.020935,742.264954 356.046722,740.788513 356.013275,739.313416 
	C355.983429,737.997437 355.888184,736.683044 355.821777,735.367920 
	C357.485443,718.045654 351.598053,700.435913 358.547516,682.343018 
	C355.551483,683.390076 353.471771,684.092285 351.409424,684.842224 
	C345.010895,687.168884 341.060333,685.096130 340.010040,678.363647 
	C339.120605,672.662048 339.095459,666.819275 338.094879,661.143555 
	C337.455383,657.516296 335.411285,654.150635 334.618469,650.531494 
	C334.102142,648.174622 333.882172,645.041138 335.049561,643.241760 
	C336.069794,641.669189 339.532532,640.411682 341.336060,640.951782 
	C343.397522,641.569275 345.426819,644.055359 346.389618,646.211853 
	C348.375427,650.659790 349.948486,655.355103 351.084137,660.094116 
	C351.693848,662.638367 351.044708,665.484314 350.555664,668.667053 
	C349.922363,670.224243 349.696960,671.308411 349.471588,672.392700 
	C349.992035,672.233337 350.512451,672.073975 351.032898,671.914551 
	C362.623138,675.046570 373.875336,672.039368 385.673645,670.447571 
	C388.572479,672.552734 390.591736,673.139343 391.004761,669.158875 
	C391.079407,668.735779 391.154083,668.312622 391.228729,667.889526 
	C389.250763,668.042969 387.265625,668.134521 385.296326,668.362732 
	C381.179840,668.839478 378.376251,667.127380 377.643829,663.097229 
	C376.902191,659.016663 379.081879,656.081604 383.051666,655.619568 
	C387.700623,655.078552 392.455902,655.378357 397.163788,655.429443 
	C416.495117,655.639343 435.825989,655.893127 455.636536,656.490723 
	C457.078613,656.609863 458.041199,656.368896 459.003784,656.128052 
	C461.981964,655.362000 464.960144,654.595947 468.039795,653.803833 
	C468.039795,638.149841 468.596191,622.823608 467.791687,607.569153 
	C467.421173,600.543518 464.222107,593.695312 462.651093,586.689148 
	C462.118195,584.312622 461.810242,581.183411 462.941193,579.348206 
	C463.927063,577.748535 467.378540,576.413208 469.200928,576.916199 
	C471.270111,577.487366 473.202545,579.978394 474.358521,582.091919 
	C475.993073,585.080505 477.028442,588.439270 477.991394,591.735779 
	C478.520630,593.547485 478.376648,595.555908 477.936768,597.742432 
	C476.705872,598.365601 476.074402,598.722107 475.442932,599.078552 
	C475.960388,599.385254 476.477844,599.691956 476.995331,599.998657 
	C476.989319,600.446289 476.983307,600.893860 476.602539,601.721924 
	C476.276611,602.779358 476.325439,603.456482 476.374268,604.133545 
	C476.374237,619.872742 476.374237,635.611938 476.374237,651.942200 
	C482.718567,648.569946 488.496429,649.538513 493.438171,656.099487 
	C494.071564,653.376038 494.499817,651.534607 495.552002,649.352478 
	C498.940948,648.479309 502.525482,650.515564 504.167480,646.462463 
	C506.381134,648.993347 508.594788,651.524170 511.537506,654.888611 
	C511.537506,645.140747 512.156311,636.371887 511.404358,627.722168 
	C509.986389,611.411316 507.778931,595.169006 506.127808,578.326538 
	C505.969330,577.168152 505.582672,576.581421 505.196045,575.994751 
	C505.074951,575.272095 504.953827,574.549438 505.056274,573.317871 
	C504.909149,572.204468 504.538452,571.600037 504.167755,570.995605 
	C501.445435,563.151611 498.868652,555.252441 495.924591,547.492554 
	C494.842041,544.639221 492.891479,542.115234 491.175354,538.756470 
	C489.975769,537.394165 488.937714,536.716370 487.899628,536.038574 
	C485.319702,534.656006 482.728180,533.294434 480.162659,531.885620 
	C476.790833,530.034119 475.516083,526.223633 477.153778,523.003906 
	C478.756256,519.853455 483.092468,518.324280 486.101501,520.287476 
	C491.422760,523.759155 496.550201,527.530579 501.705322,531.250549 
	C502.313599,531.689514 502.586456,532.593323 502.718018,533.784973 
	C502.652344,535.191223 502.883453,536.094116 503.114563,536.997009 
	C505.155243,546.344055 507.195923,555.691162 509.019531,565.586487 
	C509.139191,566.758118 509.475983,567.381531 509.812775,568.004883 
	C511.551849,579.398132 513.290894,590.791321 514.681946,602.766724 
	C514.849976,605.900208 515.366028,608.451538 515.882080,611.002930 
M491.282501,749.793701 
	C491.195679,749.344849 491.108887,748.895996 491.022095,748.447144 
	C490.708130,749.032959 490.394196,749.618774 489.948700,750.891541 
	C487.530853,751.781677 483.847961,754.132385 482.906982,753.317383 
	C477.976379,749.046875 474.741516,752.596802 470.752899,754.690247 
	C472.369568,757.820740 473.823273,760.635681 475.085327,763.079468 
	C478.676941,761.476807 481.784668,760.090088 485.147064,759.221130 
	C485.767822,758.920654 486.388611,758.620178 487.757111,758.207886 
	C493.990967,759.931213 500.224823,761.654602 506.458679,763.377930 
	C506.659821,763.037781 506.860992,762.697632 507.062134,762.357483 
	C504.592834,759.574646 502.123566,756.791870 499.724854,754.088623 
	C493.504669,757.626892 491.149017,756.447327 491.282501,749.793701 
M333.781250,808.201294 
	C337.032349,809.746338 340.136505,811.956604 343.561768,812.713318 
	C354.482788,815.125916 365.606537,816.004578 376.673096,813.861389 
	C383.646179,812.510864 390.517242,810.394592 395.581268,804.895935 
	C403.852173,795.915039 401.140076,784.415894 389.903961,781.522583 
	C385.982483,780.512756 381.623352,779.933655 377.686920,780.559570 
	C372.302826,781.415649 368.484863,780.766418 366.945282,775.083252 
	C364.709290,775.083252 362.747833,775.083252 360.653534,775.083252 
	C360.430115,777.494385 360.221344,779.747437 359.256653,782.011230 
	C357.487396,782.723389 355.718170,783.435547 353.284363,783.863098 
	C352.781982,781.616089 352.279572,779.369080 351.552063,776.115173 
	C347.135468,779.372314 342.769714,782.201355 338.862244,785.563110 
	C332.625854,790.928467 329.292938,797.511047 331.550201,806.358154 
	C332.082886,806.886169 332.615570,807.414124 333.781250,808.201294 
M491.612640,821.950562 
	C494.118835,822.118958 496.521759,822.163086 496.031708,818.119873 
	C496.268524,817.967957 496.527222,817.902283 497.552948,818.023010 
	C498.563690,818.060486 499.574402,818.097961 500.585144,818.135376 
	C500.106659,817.321411 499.628143,816.507507 499.505676,815.069641 
	C509.766113,803.836304 512.659729,790.325623 512.008545,776.084961 
	C507.420532,774.787842 503.317596,773.218445 499.071411,772.519653 
	C492.023163,771.359802 484.949066,769.118958 478.039215,773.928955 
	C464.466187,783.377441 456.732025,795.785339 456.963470,812.642761 
	C457.059570,819.642944 460.112152,823.223511 466.713043,825.052185 
	C475.240479,827.414673 483.005341,825.085327 491.612640,821.950562 
M357.401703,767.521118 
	C356.720551,768.128967 356.039398,768.736877 355.358246,769.344788 
	C355.955780,769.740967 356.553284,770.137085 357.150757,770.533264 
	C357.367493,769.699768 357.584198,768.866333 357.401703,767.521118 
M395.888214,668.546326 
	C396.233215,667.895264 396.578186,667.244202 396.923157,666.593140 
	C395.971191,666.893799 395.019226,667.194458 394.067230,667.495056 
	C394.485382,667.928528 394.903534,668.362000 395.888214,668.546326 
M478.068939,768.256287 
	C477.444580,768.722778 476.820251,769.189270 476.195892,769.655762 
	C476.484100,769.969238 476.772308,770.282715 477.060547,770.596191 
	C477.557922,769.958313 478.055298,769.320435 478.068939,768.256287 
M492.641235,535.435669 
	C493.026672,534.555847 493.412079,533.675964 493.797516,532.796082 
	C493.379639,532.700378 492.961761,532.604675 492.543884,532.508911 
	C492.434906,533.324280 492.325897,534.139648 492.641235,535.435669 
M492.275726,742.881897 
	C492.467987,743.423950 492.660217,743.966003 492.852478,744.508057 
	C493.130554,744.381348 493.408630,744.254639 493.686707,744.127930 
	C493.361176,743.569763 493.035614,743.011658 492.275726,742.881897 
M394.516968,813.413391 
	C394.516968,813.413391 394.582123,813.523132 394.516968,813.413391 
M468.411865,777.482788 
	C468.411865,777.482788 468.523041,777.416382 468.411865,777.482788 
M470.588593,775.517212 
	C470.588593,775.517212 470.476837,775.583984 470.588593,775.517212 
M490.589325,824.517151 
	C490.589325,824.517151 490.476807,824.584656 490.589325,824.517151 
M475.482666,766.590393 
	C475.482666,766.590393 475.414276,766.476807 475.482666,766.590393 
z"/>
<path fill="#FAFAFA" opacity="1.000000" stroke="none" 
	d="
M341.983093,507.013855 
	C318.972168,505.361481 295.966614,503.627808 272.947479,502.099182 
	C264.475800,501.536591 255.972824,501.430939 247.482605,501.165253 
	C234.204880,500.749725 225.839493,493.907043 223.061127,480.858002 
	C222.377289,477.646332 222.129578,474.305542 222.024002,471.013153 
	C221.545227,456.081085 221.189056,441.145111 220.799591,426.614777 
	C218.005890,425.377441 215.162445,424.518036 212.751282,422.980652 
	C202.578934,416.494537 192.264389,410.173767 182.570053,403.022278 
	C178.328979,399.893616 175.395828,394.961456 171.972412,390.763733 
	C168.760941,386.825928 165.864227,382.619019 162.502151,378.819824 
	C159.008453,374.871887 159.924820,370.831604 164.790909,367.644501 
	C164.790909,350.059082 164.379181,332.972687 164.917191,315.916290 
	C165.372726,301.473755 166.908279,287.064484 168.006638,272.643616 
	C168.334747,268.335999 169.014221,264.045868 169.155365,259.735352 
	C169.403183,252.165344 175.850204,248.614883 179.439545,243.216019 
	C181.985626,239.386383 184.175674,235.287048 187.023346,231.704498 
	C188.507507,229.837326 191.095261,227.702026 193.138672,227.747513 
	C195.173462,227.792816 198.197586,230.060684 198.858170,232.008484 
	C199.514999,233.945190 198.534348,237.557220 196.958984,238.953506 
	C184.531555,249.968414 177.122040,263.856781 175.247360,279.992126 
	C173.008636,299.260925 171.688644,318.703918 171.331879,338.096527 
	C171.142853,348.372162 173.851578,358.699097 175.217346,369.007477 
	C175.427094,370.590546 175.494812,372.197205 175.539978,373.795471 
	C175.566513,374.733429 174.984390,376.015228 175.414352,376.566406 
	C182.309250,385.404846 188.531204,394.982910 196.576553,402.637024 
	C202.356461,408.135895 210.559692,411.126984 217.808350,415.000092 
	C218.894485,415.580505 220.671646,414.817505 222.132477,414.758087 
	C224.619370,414.656891 227.725479,413.691895 229.423798,414.819092 
	C231.119507,415.944489 231.888031,419.128479 232.205292,421.523621 
	C232.766251,425.758240 232.776077,430.077759 232.832306,434.364166 
	C232.892303,438.938629 232.664719,443.516388 232.694382,448.091858 
	C232.754608,457.383698 232.376312,466.720245 233.168961,475.953339 
	C233.913940,484.631042 240.320297,489.332764 250.182404,489.970245 
	C271.059326,491.319733 292.032074,491.853058 312.786194,494.264618 
	C337.527344,497.139435 362.270264,496.779449 387.049194,497.025269 
	C402.365509,497.177185 417.677521,497.737671 432.993774,497.936676 
	C436.962372,497.988251 440.934906,497.257446 444.914215,497.088379 
	C449.870880,496.877777 453.253540,493.967102 454.607452,489.827576 
	C460.017181,473.287292 464.953308,456.591766 470.003662,439.935181 
	C470.257965,439.096497 470.309814,437.782379 469.832642,437.202423 
	C466.459351,433.102448 467.693146,430.382141 472.029419,428.123627 
	C472.949432,427.644409 473.610413,426.248352 473.938507,425.140717 
	C474.591003,422.937775 474.631439,420.524689 475.462646,418.409821 
	C476.937469,414.657227 480.707977,413.160339 483.988342,414.657471 
	C487.332855,416.183960 488.480896,419.767365 486.799835,423.529846 
	C486.082245,425.135864 485.301331,426.713593 484.221954,428.996155 
	C496.666473,429.405273 507.337830,426.218109 516.632385,419.315979 
	C521.562744,415.654663 519.803284,409.718231 518.522766,404.966400 
	C516.969666,399.203125 514.105164,393.793274 511.430115,387.315216 
	C507.511322,391.485718 504.427551,389.867950 501.197479,387.969452 
	C497.368408,385.718933 493.475372,383.527954 489.433228,381.702881 
	C485.248535,379.813416 480.940918,379.757690 477.581543,383.460754 
	C474.149109,387.244415 471.243958,391.527100 467.647705,395.132233 
	C465.980438,396.803589 463.042877,398.483582 461.008331,398.152039 
	C458.995697,397.824127 456.311737,395.178131 455.918915,393.160248 
	C455.526642,391.145325 457.090851,388.154480 458.707031,386.458160 
	C463.100769,381.846558 467.975769,377.693542 473.091614,372.959381 
	C461.841522,366.922485 451.389526,361.934906 441.643982,355.821167 
	C436.801483,352.783325 433.138733,347.785889 429.171112,343.464813 
	C427.075165,341.182129 425.083740,338.632904 423.762634,335.861969 
	C422.657715,333.544434 421.678436,330.443634 422.369141,328.227539 
	C422.899475,326.526154 426.223358,324.543213 428.110870,324.722961 
	C430.238983,324.925659 433.169281,326.985321 433.996368,328.968842 
	C441.763428,347.596252 456.507782,358.772827 474.149261,366.573975 
	C479.173706,368.795868 485.166504,369.942017 490.661072,369.777130 
	C506.953461,369.288177 517.178955,377.380554 523.845276,391.259399 
	C527.361938,398.580811 530.169067,406.105774 530.045532,414.458496 
	C529.957336,420.423035 527.723755,425.180054 522.561279,428.124084 
	C512.873291,433.648865 502.654602,437.721497 491.288910,438.007599 
	C480.735626,438.273315 480.784271,438.259583 477.955078,448.679169 
	C474.340912,461.989716 470.678955,475.287598 466.960541,488.569366 
	C462.911865,503.030731 455.109650,508.712738 440.231171,508.440094 
	C427.240540,508.202026 414.246857,508.116089 401.254059,508.017426 
	C383.943451,507.885956 366.632446,507.807281 348.852539,507.833923 
	C348.383453,507.961914 348.457977,507.975708 348.202454,507.632446 
	C345.959015,507.197418 343.971039,507.105652 341.983093,507.013855 
z"/>
<path fill="#FBFBFB" opacity="1.000000" stroke="none" 
	d="
M352.772827,619.705383 
	C338.757233,632.761780 324.238373,644.822510 315.209625,661.912659 
	C307.835114,675.871460 296.273590,682.924194 280.076904,681.975952 
	C272.467163,681.530396 265.062531,682.582703 258.211456,686.696838 
	C253.607880,689.461365 249.150070,686.655701 247.115662,680.345581 
	C242.740479,666.775146 238.654221,653.104431 233.933456,639.655884 
	C231.914124,633.903198 228.861053,628.456055 225.806061,623.141235 
	C223.112564,618.455261 226.044907,609.464050 231.936523,607.318359 
	C246.259521,602.101746 260.678741,597.140198 275.147552,592.342163 
	C277.564056,591.540833 280.431732,592.176331 283.077423,591.972595 
	C287.500824,591.632019 291.913788,591.154480 296.329865,590.721863 
	C296.824310,590.673462 297.334198,590.398743 297.797150,590.473877 
	C301.502625,591.075317 305.509949,591.078613 308.779083,592.627747 
	C310.701965,593.538879 312.986145,597.372620 312.481567,599.143494 
	C308.078583,614.596558 310.148285,630.155884 310.910034,645.707581 
	C310.981567,647.168030 311.047150,648.628662 311.162933,651.103149 
	C318.632629,641.623169 325.433533,632.726746 332.533661,624.075989 
	C337.116516,618.492188 341.945282,613.076111 347.044525,607.964783 
	C349.577576,605.425720 352.943085,605.799438 355.544739,608.421021 
	C358.114227,611.010132 358.301270,614.036743 356.093750,616.964050 
	C355.324158,617.984558 354.074646,618.643127 352.772827,619.705383 
M283.813171,618.120300 
	C269.475250,619.719421 255.137314,621.318542 240.947586,622.901123 
	C242.450424,626.346802 244.191071,629.164612 244.880920,632.219666 
	C245.722336,635.946045 245.045090,640.065186 246.142990,643.674316 
	C249.168015,653.618225 252.776367,663.384766 255.754471,672.057983 
	C266.697968,671.305115 276.214020,670.478638 285.747986,670.042297 
	C295.432098,669.599121 299.923279,665.327393 300.047424,655.809326 
	C300.103821,651.484985 300.157990,647.160217 300.166870,642.835571 
	C300.185181,633.929871 300.172394,625.024109 300.172394,616.154785 
	C294.523560,616.841858 289.619019,617.438416 283.813171,618.120300 
z"/>
<path fill="#F8F8F8" opacity="1.000000" stroke="none" 
	d="
M102.342003,460.704010 
	C120.295578,475.962677 141.435928,484.279999 162.753250,492.471375 
	C187.872604,502.123657 205.188385,519.892151 214.873062,545.074158 
	C216.700882,549.826843 218.991745,554.399963 221.006546,559.082764 
	C222.806870,563.267029 221.764877,566.687500 218.450699,567.778381 
	C215.120697,568.874512 212.225357,566.843262 211.010834,562.388489 
	C207.861984,550.838745 203.142944,540.011169 195.943680,530.404480 
	C187.630005,519.310730 177.106445,510.887573 164.527100,504.995361 
	C149.046738,497.744263 133.094849,491.301880 118.277618,482.873474 
	C85.443008,464.196533 64.422478,435.879608 55.584553,399.188477 
	C52.930710,388.170898 52.085312,376.457703 52.219162,365.084473 
	C52.473244,343.495178 52.785385,321.767731 55.416782,300.386047 
	C57.824226,280.824188 63.470417,261.672455 67.405205,242.282349 
	C69.569176,231.618637 72.873230,220.768356 72.456276,210.127869 
	C72.107552,201.228729 75.938911,194.351852 78.020760,186.629013 
	C79.022728,182.912094 83.245102,181.383453 86.564217,183.005371 
	C90.018501,184.693329 91.824471,187.854980 90.006897,191.241333 
	C82.329163,205.545837 80.216599,221.507690 76.258385,236.862442 
	C71.117401,256.805389 66.395973,276.913483 62.798725,297.182068 
	C58.839508,319.490143 58.246746,342.122925 59.551605,364.803253 
	C60.361996,378.888977 61.266972,392.911316 65.535851,406.458069 
	C72.347649,428.074493 85.275887,445.589447 102.342003,460.704010 
z"/>
<path fill="#F9F9F9" opacity="1.000000" stroke="none" 
	d="
M425.092255,129.904953 
	C422.404755,128.554153 418.854279,127.885437 417.163879,125.746597 
	C401.056244,105.365913 379.526886,101.137299 355.235382,103.748856 
	C320.751251,107.456238 290.495300,121.363762 262.648010,141.264954 
	C256.452576,145.692566 250.578339,150.565125 247.702103,157.977859 
	C250.284698,157.749084 252.885223,157.447601 255.493408,157.349503 
	C255.997452,157.330536 256.650909,158.019150 257.028778,158.533264 
	C258.078644,159.961594 259.712250,161.397812 259.874939,162.960068 
	C260.380585,167.816010 262.050964,173.599838 260.126648,177.454926 
	C255.158951,187.407013 253.004013,197.921967 251.096786,208.573944 
	C250.078018,214.263809 249.994064,220.121414 249.495743,225.903961 
	C249.110657,230.372299 246.612198,232.735306 242.858673,232.165756 
	C239.441589,231.647232 237.669205,228.215027 238.226242,224.087067 
	C239.617752,213.775543 240.709015,203.423019 242.145386,193.118256 
	C242.652374,189.481094 243.811356,185.934784 244.000565,182.001740 
	C242.680298,184.955551 240.983704,187.801651 240.102249,190.881073 
	C235.221069,207.933762 230.572311,225.052841 225.757660,242.124847 
	C224.836945,245.389572 223.533539,249.060913 219.072357,247.475082 
	C214.833740,245.968338 215.950714,242.612778 216.936554,239.152542 
	C221.389420,223.523071 225.806076,207.875397 229.734558,192.109390 
	C230.863403,187.578949 230.316010,182.630844 230.558960,177.405457 
	C225.006378,173.042740 225.150253,170.891022 230.050217,164.589661 
	C233.241821,160.485291 235.219818,155.453278 237.920944,150.944336 
	C239.168625,148.861618 240.447250,146.393570 242.387817,145.190994 
	C267.503021,129.626831 292.828247,114.445007 321.055450,104.934929 
	C339.065674,98.867081 357.368683,94.779152 376.545227,95.986465 
	C393.402039,97.047737 408.554993,102.186005 420.833374,114.307739 
	C421.896484,115.357262 423.013397,116.364235 424.185608,117.289253 
	C429.484558,121.470894 429.802490,122.624718 427.572784,128.838196 
	C427.989044,129.071701 428.087891,128.994034 427.849365,128.592209 
	C426.709778,128.812744 425.808716,129.435089 424.959167,130.025787 
	C425.010651,129.994125 425.092255,129.904953 425.092255,129.904953 
M246.980530,160.341156 
	C246.539917,160.219330 246.103424,160.067017 245.654541,160.006058 
	C245.580841,159.996063 245.452591,160.387772 245.349564,160.593842 
	C245.741196,160.734818 246.132843,160.875793 246.980530,160.341156 
z"/>
<path fill="#FAFAFA" opacity="1.000000" stroke="none" 
	d="
M233.230103,360.810913 
	C237.209930,369.074371 243.550171,374.791290 250.944321,378.949524 
	C260.800140,384.492126 271.127686,389.211853 281.378571,394.016235 
	C282.680695,394.626495 285.069061,394.120575 286.392548,393.263977 
	C290.793213,390.415710 295.037231,387.514282 300.584747,389.997528 
	C306.205505,392.513580 308.349365,397.362122 308.982483,403.054230 
	C309.616333,408.752563 310.744049,414.520050 310.376068,420.173920 
	C309.928436,427.051697 308.422119,433.908234 306.830566,440.645630 
	C305.906952,444.555573 296.386871,450.875305 292.482574,450.956848 
	C288.536560,451.039246 285.297668,448.049988 284.297424,443.021301 
	C282.696564,434.973022 281.097626,426.916382 279.854919,418.808594 
	C279.337372,415.432251 279.394562,411.872223 279.822266,408.475250 
	C280.201660,405.461884 279.696533,403.729614 276.835297,402.112762 
	C263.040253,394.317291 249.316849,386.385773 235.742844,378.212189 
	C228.738647,373.994690 222.755905,368.630951 219.124573,360.942413 
	C217.891815,358.332336 215.190338,356.437775 213.817184,353.865448 
	C212.676971,351.729523 211.454575,348.674927 212.190399,346.769348 
	C212.934326,344.842773 216.057648,342.701996 218.107407,342.732788 
	C220.137283,342.763306 222.597382,345.032959 224.041000,346.945312 
	C227.302933,351.266418 230.054367,355.972931 233.230103,360.810913 
z"/>
<path fill="#F8F8F8" opacity="1.000000" stroke="none" 
	d="
M427.942627,129.114075 
	C439.498627,124.952011 451.028809,120.532974 462.721619,116.597160 
	C477.545990,111.607254 492.683289,108.934410 507.797913,115.088570 
	C514.793884,117.937088 521.322510,121.953102 527.998291,125.559578 
	C531.260498,127.321892 532.705994,130.204468 530.382812,133.402328 
	C528.035339,136.633591 524.946167,135.786713 522.111511,133.572876 
	C513.464966,126.819916 504.352478,121.304138 493.095856,119.717293 
	C480.779419,117.981041 469.336670,121.351707 458.240906,125.409294 
	C444.805573,130.322449 431.807800,136.466309 418.750000,142.363937 
	C411.784882,145.509766 406.498016,150.571472 402.842804,157.511002 
	C401.828186,159.437317 398.769043,161.277710 396.616150,161.314835 
	C394.733276,161.347290 391.754364,159.122345 391.177765,157.290802 
	C390.531555,155.238068 392.024292,152.502304 392.636963,150.076508 
	C392.705231,149.806259 393.193878,149.665451 393.335846,149.387192 
	C399.939575,136.443329 413.619019,135.490982 425.054688,130.290710 
	C425.092255,129.904953 425.010651,129.994125 425.320221,130.096970 
	C426.449158,129.797882 427.268524,129.395966 428.087891,128.994034 
	C428.087891,128.994034 427.989044,129.071701 427.942627,129.114075 
z"/>
<path fill="#FBFBFB" opacity="1.000000" stroke="none" 
	d="
M407.427856,450.252136 
	C404.454315,452.019897 401.461578,454.970856 399.070496,454.544861 
	C396.646637,454.113037 394.532318,450.531647 392.843140,447.961243 
	C391.947784,446.598785 392.005859,444.449402 392.038452,442.662659 
	C392.307434,427.907013 392.623718,413.151733 393.032166,398.399292 
	C393.176331,393.193146 396.274567,389.411530 400.278625,389.109161 
	C404.368683,388.800293 411.426697,394.618774 411.807831,399.258698 
	C412.237885,404.494415 412.178253,409.801697 411.910889,415.056427 
	C411.445862,424.195526 410.785187,433.330261 409.923523,442.440033 
	C409.682068,444.992737 408.450195,447.451782 407.427856,450.252136 
z"/>
<path fill="#F6F6F6" opacity="1.000000" stroke="none" 
	d="
M360.892700,346.110748 
	C357.343658,341.784271 354.032379,337.698700 350.503815,333.810333 
	C347.798889,330.829590 347.752472,326.660522 350.705353,324.084534 
	C353.664734,321.502869 358.395660,321.784943 360.236572,325.276733 
	C374.138092,351.644348 397.742676,367.479370 422.034302,382.581940 
	C426.791595,385.539673 431.728943,388.208679 436.595398,390.989563 
	C439.196869,392.476135 440.989777,394.487762 439.061066,397.417450 
	C437.183899,400.268829 434.665009,399.570526 432.181305,397.832642 
	C410.348297,382.555847 388.469604,367.344177 366.677643,352.009186 
	C364.545898,350.509033 362.905457,348.310760 360.892700,346.110748 
z"/>
<path fill="#F7F7F7" opacity="1.000000" stroke="none" 
	d="
M287.146912,318.075989 
	C292.249725,316.602905 295.177917,318.467987 296.574585,323.093445 
	C296.904205,324.185089 297.254547,325.311005 297.830292,326.281830 
	C308.192230,343.754883 319.395111,360.436981 337.833557,370.690430 
	C345.051453,374.704285 351.981415,379.233490 359.084656,383.457184 
	C361.709106,385.017761 364.153900,386.791290 362.051514,390.080597 
	C360.022003,393.255920 357.383270,392.203003 354.788666,390.337463 
	C338.383636,378.542023 321.734619,367.071625 305.633453,354.876923 
	C301.060089,351.413177 297.928986,345.981873 294.345886,341.292847 
	C291.175079,337.143341 288.447998,332.652588 285.240417,328.534149 
	C282.528931,325.052643 282.808319,322.079712 287.146912,318.075989 
z"/>
<path fill="#F8F8F8" opacity="1.000000" stroke="none" 
	d="
M388.129578,543.690186 
	C396.584167,544.877258 403.501862,541.480164 409.830994,537.466248 
	C416.370483,533.318848 422.195251,528.041992 428.311371,523.232239 
	C429.223358,522.515015 429.978851,521.601196 430.875244,520.861267 
	C433.360199,518.809937 436.060150,518.147827 438.349426,520.880981 
	C440.828033,523.840210 439.587097,526.529785 436.822021,528.536987 
	C429.186523,534.079773 421.533173,539.601624 413.775299,544.970520 
	C409.996185,547.585876 406.085968,550.064514 402.026093,552.209473 
	C395.528381,555.642273 388.836670,557.811462 381.265137,555.259949 
	C378.908356,554.465759 375.916504,555.740356 373.384796,555.229004 
	C370.875763,554.722229 367.808350,553.727112 366.441315,551.873047 
	C365.393250,550.451660 365.778961,546.620239 367.038147,545.209045 
	C368.461212,543.614258 371.562866,542.950867 373.953369,542.906860 
	C378.535461,542.822510 383.130890,543.462219 388.129578,543.690186 
z"/>
<path fill="#F6F6F6" opacity="1.000000" stroke="none" 
	d="
M513.257629,362.719757 
	C501.652557,354.625305 492.688934,344.590790 485.638733,332.770996 
	C483.576599,329.313812 484.418396,325.153870 487.770233,323.262909 
	C491.145782,321.358582 495.929291,322.616852 496.883362,326.408844 
	C502.570557,349.013306 520.733459,360.507568 537.839294,372.957001 
	C541.038513,375.285309 544.551453,377.177979 547.862549,379.358429 
	C550.305725,380.967346 552.001953,383.105896 549.964722,385.984833 
	C547.822754,389.011780 545.285828,388.299622 542.708069,386.230316 
	C533.004395,378.440796 523.248169,370.716705 513.257629,362.719757 
z"/>
<path fill="#F7F7F7" opacity="1.000000" stroke="none" 
	d="
M531.390381,191.434097 
	C519.523560,195.018509 508.084259,198.694565 496.470123,201.693604 
	C489.173645,203.577744 482.447479,205.997818 476.759155,211.202393 
	C473.835144,213.877747 469.246216,212.608276 467.304321,209.281509 
	C465.490784,206.174683 466.636993,202.121719 469.872314,200.203049 
	C474.245270,197.609695 478.536194,194.859894 483.032043,192.500732 
	C484.834320,191.555023 487.313446,190.643158 489.097565,191.131012 
	C497.983459,193.560898 506.086639,190.713104 514.239563,188.043045 
	C519.231873,186.408081 524.188904,184.638870 529.071960,182.703369 
	C534.572205,180.523209 537.910583,180.957809 538.516235,184.590179 
	C539.364807,189.680069 535.401855,190.432968 531.390381,191.434097 
z"/>
<path fill="#F7F7F7" opacity="1.000000" stroke="none" 
	d="
M546.302307,321.294403 
	C556.281799,320.125275 565.821716,319.158325 575.314819,317.850952 
	C578.725769,317.381165 581.500061,317.549561 582.056824,321.455261 
	C582.628418,325.465881 579.661926,326.616669 576.451050,326.849060 
	C565.531067,327.639404 554.594421,328.203430 543.677490,329.030212 
	C539.408447,329.353516 535.190552,330.408203 530.921448,330.663452 
	C523.574524,331.102753 516.201050,331.433319 508.848206,331.296051 
	C505.159363,331.227173 502.849457,327.288300 503.623627,323.686646 
	C504.454559,319.821136 507.594177,318.207062 511.956207,318.755768 
	C521.586487,319.967102 531.245850,320.958374 540.906311,321.907593 
	C542.518860,322.066040 544.196594,321.560730 546.302307,321.294403 
z"/>
<path fill="#F7F7F7" opacity="1.000000" stroke="none" 
	d="
M512.854614,266.612610 
	C510.662872,267.498962 508.849640,268.647766 506.984131,268.740051 
	C504.530914,268.861328 501.553040,268.847961 499.716492,267.573242 
	C498.306152,266.594330 497.305481,263.181000 497.939850,261.562683 
	C498.751007,259.493561 501.124786,257.417389 503.292816,256.626953 
	C508.023010,254.902328 513.047852,253.984680 517.954773,252.747284 
	C518.904541,252.507751 519.971619,251.927933 520.805847,252.156723 
	C532.257385,255.297409 541.992249,249.859085 552.086670,246.105438 
	C553.730713,245.494110 555.911255,244.664917 557.232971,245.270218 
	C558.866577,246.018311 561.056335,248.345245 560.853027,249.656143 
	C560.548401,251.620804 558.706848,254.353165 556.932556,254.918320 
	C546.479675,258.247833 535.879333,261.127747 525.279541,263.976410 
	C521.324463,265.039337 517.236938,265.609863 512.854614,266.612610 
z"/>
<path fill="#F7F7F7" opacity="1.000000" stroke="none" 
	d="
M317.057007,580.594421 
	C315.185364,580.267700 313.313721,579.940918 312.685059,579.831177 
	C311.550018,575.300110 310.653320,571.614075 309.700348,567.942688 
	C308.443909,563.102173 308.624939,558.752808 311.923065,554.425415 
	C316.298157,548.684937 319.806183,542.287659 324.112427,536.488647 
	C325.502045,534.617188 328.217102,532.749390 330.358337,532.711243 
	C332.242157,532.677856 335.230957,534.869995 335.799500,536.684692 
	C336.440613,538.730896 335.714111,542.242249 334.211670,543.753357 
	C325.163879,552.853088 320.036316,563.788452 317.807312,576.595581 
	C317.958099,576.985962 318.013397,576.943298 317.607117,577.027588 
	C317.112305,578.219421 317.023773,579.327026 316.960510,580.478516 
	C316.985840,580.522339 317.057007,580.594421 317.057007,580.594421 
z"/>
<path fill="#F8F8F8" opacity="1.000000" stroke="none" 
	d="
M348.457977,507.975708 
	C348.457977,507.975708 348.383453,507.961914 348.350830,507.942169 
	C349.528717,510.555389 350.880371,513.133850 351.922394,515.831970 
	C354.647125,522.886841 355.252258,530.813721 361.307892,536.462952 
	C364.489319,539.430847 364.308197,543.319946 361.604858,545.667480 
	C358.834137,548.073486 354.832642,547.467896 352.196808,543.800659 
	C347.632416,537.450256 341.743622,531.755371 341.707123,523.017822 
	C341.700134,521.346069 340.607880,519.588501 339.733948,518.028748 
	C337.623962,514.262878 338.023041,511.082886 342.281433,508.273193 
	C344.841400,508.073151 346.649689,508.024445 348.457977,507.975708 
z"/>
<path fill="#F8F8F8" opacity="1.000000" stroke="none" 
	d="
M316.995880,580.995361 
	C317.057007,580.594421 316.985840,580.522339 317.356018,580.235840 
	C317.821930,578.947388 317.917664,577.945312 318.013397,576.943298 
	C318.013397,576.943298 317.958099,576.985962 317.925598,576.998596 
	C319.243805,575.231384 320.754211,573.545898 321.883301,571.635132 
	C322.526550,570.546448 322.394287,569.029480 322.876617,567.810303 
	C324.383881,564.000366 328.321472,562.407349 331.835876,564.072571 
	C335.244202,565.687500 336.912689,570.285400 334.509766,573.367065 
	C329.120819,580.278015 327.346313,587.963196 327.988800,596.506226 
	C328.275787,600.322632 325.930939,602.597534 322.368286,602.769653 
	C318.512970,602.955872 315.608765,600.591553 316.141083,596.691040 
	C316.839050,591.576660 312.649872,586.241089 316.995880,580.995361 
z"/>
<path fill="#EFEFEF" opacity="1.000000" stroke="none" 
	d="
M348.270142,477.570587 
	C344.154449,476.577393 341.836517,474.039520 342.661713,470.375183 
	C343.141144,468.246094 345.456421,465.395538 347.365356,465.023529 
	C349.530243,464.601654 352.968781,465.914795 354.430023,467.663300 
	C357.662415,471.531189 354.694824,476.256866 348.270142,477.570587 
z"/>
<path fill="#F8F8F8" opacity="1.000000" stroke="none" 
	d="
M479.016907,692.948364 
	C481.744080,693.266602 484.447876,693.975464 488.511108,695.040710 
	C485.703430,696.675049 484.363098,697.455200 482.571594,698.497986 
	C481.292236,696.653381 480.142914,694.996155 479.016907,692.948364 
z"/>
<path fill="#F9F9F9" opacity="1.000000" stroke="none" 
	d="
M503.927887,646.243958 
	C502.525482,650.515564 498.940948,648.479309 495.756897,649.011841 
	C497.215118,645.482605 500.123291,644.835754 503.927887,646.243958 
z"/>
<path fill="#F9F9F9" opacity="1.000000" stroke="none" 
	d="
M492.918274,728.581177 
	C490.875671,728.822327 488.909119,728.640503 486.763062,728.442078 
	C486.851440,727.535889 486.955627,726.467285 487.093689,725.035461 
	C488.938995,726.076782 493.611938,722.665588 492.918274,728.581177 
z"/>
<path fill="#F9F9F9" opacity="1.000000" stroke="none" 
	d="
M435.043640,710.390564 
	C436.293732,709.517151 437.629395,708.917786 438.965057,708.318420 
	C438.914185,709.867554 438.863312,711.416687 438.415405,713.125488 
	C437.055328,712.411621 436.092285,711.538086 435.043640,710.390564 
z"/>
<path fill="#F9F9F9" opacity="1.000000" stroke="none" 
	d="
M515.951660,610.586548 
	C515.366028,608.451538 514.849976,605.900208 514.635254,603.185669 
	C515.298157,605.405029 515.659668,607.787598 515.951660,610.586548 
z"/>
<path fill="#F9F9F9" opacity="1.000000" stroke="none" 
	d="
M407.727417,669.642273 
	C405.712708,668.875244 403.729858,667.740540 400.812408,666.070923 
	C402.995483,665.670959 404.193848,665.451355 405.629517,665.429932 
	C406.497620,666.843567 407.128418,668.059082 407.727417,669.642273 
z"/>
<path fill="#F9F9F9" opacity="1.000000" stroke="none" 
	d="
M355.539642,735.662842 
	C355.888184,736.683044 355.983429,737.997437 356.013275,739.313416 
	C356.046722,740.788513 356.020935,742.264954 355.032990,743.887329 
	C354.672546,741.558289 354.312134,739.229187 353.963593,736.484741 
	C354.402832,736.032227 354.830170,735.994995 355.539642,735.662842 
z"/>
<path fill="#F9F9F9" opacity="1.000000" stroke="none" 
	d="
M390.638947,669.087036 
	C390.591736,673.139343 388.572479,672.552734 386.080017,670.511475 
	C387.421356,669.779602 388.847229,669.397400 390.638947,669.087036 
z"/>
<path fill="#F9F9F9" opacity="1.000000" stroke="none" 
	d="
M458.292847,832.126221 
	C459.643921,832.322876 461.261169,832.732666 462.942139,833.464722 
	C461.523529,833.304382 460.041260,832.821838 458.292847,832.126221 
z"/>
<path fill="#F9F9F9" opacity="1.000000" stroke="none" 
	d="
M466.286072,662.489319 
	C467.238129,662.228210 467.999268,662.401123 468.977295,663.030396 
	C469.459076,663.935913 469.723969,664.385071 469.988861,664.834290 
	C468.558746,664.466675 465.948242,666.504211 466.286072,662.489319 
z"/>
<path fill="#F9F9F9" opacity="1.000000" stroke="none" 
	d="
M395.786377,772.733643 
	C395.385620,773.870789 394.790649,774.733215 393.780426,776.197510 
	C393.433624,774.679993 393.216919,773.731689 392.998962,772.428284 
	C393.862488,772.201782 394.727356,772.330383 395.786377,772.733643 
z"/>
<path fill="#F9F9F9" opacity="1.000000" stroke="none" 
	d="
M351.015503,671.547363 
	C350.512451,672.073975 349.992035,672.233337 349.471588,672.392700 
	C349.696960,671.308411 349.922363,670.224243 350.471680,669.067078 
	C350.863098,669.722778 350.930573,670.451477 351.015503,671.547363 
z"/>
<path fill="#F9F9F9" opacity="1.000000" stroke="none" 
	d="
M497.426392,827.144836 
	C498.300507,826.161438 499.514252,825.104248 501.143738,824.083008 
	C500.294952,825.102966 499.030487,826.086975 497.426392,827.144836 
z"/>
<path fill="#F9F9F9" opacity="1.000000" stroke="none" 
	d="
M440.152710,700.584412 
	C439.185516,700.132385 438.102875,699.371582 437.014496,698.210083 
	C438.018250,698.631531 439.027771,699.453552 440.152710,700.584412 
z"/>
<path fill="#F9F9F9" opacity="1.000000" stroke="none" 
	d="
M513.537476,808.477417 
	C513.559631,807.208740 513.869141,805.698242 514.571411,804.087891 
	C514.584351,805.403931 514.204651,806.819824 513.537476,808.477417 
z"/>
<path fill="#F9F9F9" opacity="1.000000" stroke="none" 
	d="
M479.376648,833.992065 
	C480.201019,833.575317 481.403503,833.206238 482.934753,832.979980 
	C482.093933,833.428528 480.924316,833.734131 479.376648,833.992065 
z"/>
<path fill="#F9F9F9" opacity="1.000000" stroke="none" 
	d="
M503.322571,536.802002 
	C502.883453,536.094116 502.652344,535.191223 502.705566,534.145996 
	C503.170166,534.871460 503.350372,535.739197 503.322571,536.802002 
z"/>
<path fill="#F9F9F9" opacity="1.000000" stroke="none" 
	d="
M420.367706,705.915222 
	C420.959381,705.625793 421.923035,705.415039 422.945435,705.520081 
	C422.249329,705.888550 421.494507,705.941223 420.367706,705.915222 
z"/>
<path fill="#9F9F9F" opacity="1.000000" stroke="none" 
	d="
M348.202454,507.632477 
	C346.649689,508.024445 344.841400,508.073151 342.581970,508.103729 
	C342.235657,507.889099 342.340424,507.692627 342.214111,507.255005 
	C343.971039,507.105652 345.959015,507.197418 348.202454,507.632477 
z"/>
<path fill="#F9F9F9" opacity="1.000000" stroke="none" 
	d="
M488.015076,536.324341 
	C488.937714,536.716370 489.975769,537.394165 491.036621,538.435486 
	C490.083069,538.069397 489.106781,537.339722 488.015076,536.324341 
z"/>
<path fill="#F9F9F9" opacity="1.000000" stroke="none" 
	d="
M477.254761,599.842041 
	C476.477844,599.691956 475.960388,599.385254 475.442932,599.078552 
	C476.074402,598.722107 476.705872,598.365601 477.670898,598.005310 
	C477.841034,598.562805 477.677582,599.124146 477.254761,599.842041 
z"/>
<path fill="#F9F9F9" opacity="1.000000" stroke="none" 
	d="
M458.627686,656.068970 
	C458.041199,656.368896 457.078613,656.609863 456.054810,656.536743 
	C456.746246,656.151855 457.498901,656.080933 458.627686,656.068970 
z"/>
<path fill="#F9F9F9" opacity="1.000000" stroke="none" 
	d="
M493.718231,737.300659 
	C493.593292,737.934021 493.148712,738.753967 492.704102,739.573914 
	C492.577820,738.886108 492.451569,738.198364 492.552063,737.296570 
	C492.985382,737.217468 493.191986,737.352356 493.718231,737.300659 
z"/>
<path fill="#F9F9F9" opacity="1.000000" stroke="none" 
	d="
M457.597656,753.833740 
	C457.203461,754.496765 456.509705,755.251099 455.452576,756.017456 
	C455.825470,755.328064 456.561768,754.626587 457.597656,753.833740 
z"/>
<path fill="#F9F9F9" opacity="1.000000" stroke="none" 
	d="
M470.317810,664.915833 
	C469.723969,664.385071 469.459076,663.935913 469.097076,663.244629 
	C469.967499,663.469421 470.935028,663.936340 471.949585,664.756470 
	C471.546661,665.072205 471.096680,665.034790 470.317810,664.915833 
z"/>
<path fill="#F9F9F9" opacity="1.000000" stroke="none" 
	d="
M463.544220,774.028931 
	C463.408691,774.612793 462.997955,775.294128 462.244751,775.969055 
	C462.357849,775.350586 462.813416,774.738464 463.544220,774.028931 
z"/>
<path fill="#F9F9F9" opacity="1.000000" stroke="none" 
	d="
M509.882629,567.718140 
	C509.475983,567.381531 509.139191,566.758118 509.070129,566.001282 
	C509.542755,566.389038 509.747620,566.910217 509.882629,567.718140 
z"/>
<path fill="#F9F9F9" opacity="1.000000" stroke="none" 
	d="
M410.391052,797.884766 
	C410.166565,797.396484 410.186646,796.740540 410.490417,796.038940 
	C410.727966,796.567871 410.681793,797.142456 410.391052,797.884766 
z"/>
<path fill="#F9F9F9" opacity="1.000000" stroke="none" 
	d="
M504.097717,571.286865 
	C504.538452,571.600037 504.909149,572.204468 505.024750,572.951294 
	C504.522339,572.588562 504.275024,572.083313 504.097717,571.286865 
z"/>
<path fill="#F9F9F9" opacity="1.000000" stroke="none" 
	d="
M505.136719,576.284546 
	C505.582672,576.581421 505.969330,577.168152 506.114563,577.902832 
	C505.607880,577.558655 505.342621,577.066528 505.136719,576.284546 
z"/>
<path fill="#F9F9F9" opacity="1.000000" stroke="none" 
	d="
M508.636597,694.956970 
	C508.344330,694.462952 508.289856,693.783508 508.535828,693.049927 
	C508.848999,693.587708 508.861664,694.179626 508.636597,694.956970 
z"/>
<path fill="#F9F9F9" opacity="1.000000" stroke="none" 
	d="
M368.327393,822.915833 
	C368.315308,822.356445 368.635345,821.875671 368.955383,821.394958 
	C369.274872,821.686890 369.594330,821.978821 369.959290,822.550720 
	C369.556396,822.885315 369.107941,822.939880 368.327393,822.915833 
z"/>
<path fill="#F9F9F9" opacity="1.000000" stroke="none" 
	d="
M347.618378,726.162659 
	C347.511902,726.483032 347.228027,726.608521 346.495972,726.859924 
	C346.051636,726.436890 346.055481,725.888000 346.059357,725.339111 
	C346.519928,725.548645 346.980469,725.758240 347.618378,726.162659 
z"/>
<path fill="#F9F9F9" opacity="1.000000" stroke="none" 
	d="
M476.598145,603.938232 
	C476.325439,603.456482 476.276611,602.779358 476.526733,602.048950 
	C476.824432,602.578003 476.823242,603.160522 476.598145,603.938232 
z"/>
<path fill="#F9F9F9" opacity="1.000000" stroke="none" 
	d="
M521.030457,671.377319 
	C521.201538,670.803528 521.445068,670.487854 521.962646,670.043213 
	C521.858765,670.487976 521.480896,671.061646 521.030457,671.377319 
z"/>
<path fill="#F9F9F9" opacity="1.000000" stroke="none" 
	d="
M462.631256,761.137451 
	C462.110107,760.705261 461.793701,760.237061 461.477295,759.768860 
	C461.949951,759.899597 462.422638,760.030334 462.948181,760.440430 
	C463.001038,760.719727 462.835999,761.101440 462.631256,761.137451 
z"/>
<path fill="#F9F9F9" opacity="1.000000" stroke="none" 
	d="
M346.086548,756.159180 
	C346.577881,756.482788 346.992310,757.048950 347.156250,757.826233 
	C346.607086,757.492188 346.308319,756.946960 346.086548,756.159180 
z"/>
<path fill="#F9F9F9" opacity="1.000000" stroke="none" 
	d="
M392.264893,676.703491 
	C392.560211,676.291138 393.131256,675.924316 393.851074,675.778564 
	C393.513489,676.249390 393.027069,676.499207 392.264893,676.703491 
z"/>
<path fill="#F9F9F9" opacity="1.000000" stroke="none" 
	d="
M452.471191,735.367493 
	C452.843903,735.436279 453.233398,735.693298 453.340027,735.992798 
	C452.810394,735.943054 452.620697,735.783264 452.471191,735.367493 
z"/>
<path fill="#030303" opacity="1.000000" stroke="none" 
	d="
M496.807831,817.922852 
	C496.527222,817.902283 496.268524,817.967957 495.596985,818.421265 
	C493.683044,819.778381 492.203827,820.834167 490.724609,821.890015 
	C483.005341,825.085327 475.240479,827.414673 466.713043,825.052185 
	C460.112152,823.223511 457.059570,819.642944 456.963470,812.642761 
	C456.732025,795.785339 464.466187,783.377441 478.039215,773.928955 
	C484.949066,769.118958 492.023163,771.359802 499.071411,772.519653 
	C503.317596,773.218445 507.420532,774.787842 512.008545,776.084961 
	C512.659729,790.325623 509.766113,803.836304 499.083557,815.511963 
	C498.043579,816.610413 497.425720,817.266663 496.807831,817.922852 
z"/>
<path fill="#030303" opacity="1.000000" stroke="none" 
	d="
M332.011414,805.996277 
	C329.292938,797.511047 332.625854,790.928467 338.862244,785.563110 
	C342.769714,782.201355 347.135468,779.372314 351.552063,776.115173 
	C352.279572,779.369080 352.781982,781.616089 353.817566,784.331848 
	C357.121460,785.653442 359.413361,785.538208 360.012573,782.000427 
	C360.221344,779.747437 360.430115,777.494385 360.653534,775.083252 
	C362.747833,775.083252 364.709290,775.083252 366.945282,775.083252 
	C368.484863,780.766418 372.302826,781.415649 377.686920,780.559570 
	C381.623352,779.933655 385.982483,780.512756 389.903961,781.522583 
	C401.140076,784.415894 403.852173,795.915039 395.581268,804.895935 
	C390.517242,810.394592 383.646179,812.510864 376.673096,813.861389 
	C365.606537,816.004578 354.482788,815.125916 343.561768,812.713318 
	C340.136505,811.956604 337.032349,809.746338 333.399475,807.780029 
	C332.682251,806.904663 332.346832,806.450439 332.011414,805.996277 
z"/>
<path fill="#0B0B0B" opacity="1.000000" stroke="none" 
	d="
M484.892395,758.703369 
	C481.784668,760.090088 478.676941,761.476807 475.085327,763.079468 
	C473.823273,760.635681 472.369568,757.820740 470.752899,754.690247 
	C474.741516,752.596802 477.976379,749.046875 482.906982,753.317383 
	C483.847961,754.132385 487.530853,751.781677 490.193634,750.536865 
	C490.438568,750.182190 490.786346,750.093018 490.786346,750.093018 
	C491.149017,756.447327 493.504669,757.626892 499.724854,754.088623 
	C502.123566,756.791870 504.592834,759.574646 507.062134,762.357483 
	C506.860992,762.697632 506.659821,763.037781 506.458679,763.377930 
	C500.224823,761.654602 493.990967,759.931213 487.105652,758.163940 
	C485.933563,758.314514 485.412994,758.508972 484.892395,758.703369 
z"/>
<path fill="#F9F9F9" opacity="1.000000" stroke="none" 
	d="
M359.634613,782.005859 
	C359.413361,785.538208 357.121460,785.653442 354.149841,784.474121 
	C355.718170,783.435547 357.487396,782.723389 359.634613,782.005859 
z"/>
<path fill="#F9F9F9" opacity="1.000000" stroke="none" 
	d="
M491.168640,821.920288 
	C492.203827,820.834167 493.683044,819.778381 495.487122,818.591919 
	C496.521759,822.163086 494.118835,822.118958 491.168640,821.920288 
z"/>
<path fill="#F9F9F9" opacity="1.000000" stroke="none" 
	d="
M357.601318,767.776978 
	C357.584198,768.866333 357.367493,769.699768 357.150757,770.533264 
	C356.553284,770.137085 355.955780,769.740967 355.358215,769.344788 
	C356.039398,768.736877 356.720551,768.128967 357.601318,767.776978 
z"/>
<path fill="#F9F9F9" opacity="1.000000" stroke="none" 
	d="
M395.604950,668.670898 
	C394.903534,668.362000 394.485382,667.928528 394.067230,667.495056 
	C395.019226,667.194458 395.971191,666.893799 396.923157,666.593140 
	C396.578186,667.244202 396.233215,667.895264 395.604950,668.670898 
z"/>
<path fill="#F9F9F9" opacity="1.000000" stroke="none" 
	d="
M497.180389,817.972900 
	C497.425720,817.266663 498.043579,816.610413 498.905579,815.823853 
	C499.628143,816.507507 500.106659,817.321411 500.585144,818.135376 
	C499.574402,818.097961 498.563690,818.060486 497.180389,817.972900 
z"/>
<path fill="#F9F9F9" opacity="1.000000" stroke="none" 
	d="
M478.310791,768.469360 
	C478.055298,769.320435 477.557922,769.958313 477.060547,770.596191 
	C476.772308,770.282715 476.484100,769.969238 476.195892,769.655762 
	C476.820251,769.189270 477.444580,768.722778 478.310791,768.469360 
z"/>
<path fill="#F9F9F9" opacity="1.000000" stroke="none" 
	d="
M492.429077,535.195312 
	C492.325897,534.139648 492.434906,533.324280 492.543884,532.508911 
	C492.961761,532.604675 493.379639,532.700378 493.797516,532.796082 
	C493.412079,533.675964 493.026672,534.555847 492.429077,535.195312 
z"/>
<path fill="#F9F9F9" opacity="1.000000" stroke="none" 
	d="
M492.492889,742.667725 
	C493.035614,743.011658 493.361176,743.569763 493.686707,744.127930 
	C493.408630,744.254639 493.130554,744.381348 492.852478,744.508057 
	C492.660217,743.966003 492.467987,743.423950 492.492889,742.667725 
z"/>
<path fill="#F9F9F9" opacity="1.000000" stroke="none" 
	d="
M331.780823,806.177246 
	C332.346832,806.450439 332.682251,806.904663 333.082947,807.650452 
	C332.615570,807.414124 332.082886,806.886169 331.780823,806.177246 
z"/>
<path fill="#F9F9F9" opacity="1.000000" stroke="none" 
	d="
M491.034424,749.943359 
	C490.786346,750.093018 490.438568,750.182190 490.259399,750.193359 
	C490.394196,749.618774 490.708130,749.032959 491.022095,748.447144 
	C491.108887,748.895996 491.195679,749.344849 491.034424,749.943359 
z"/>
<path fill="#F9F9F9" opacity="1.000000" stroke="none" 
	d="
M485.019714,758.962280 
	C485.412994,758.508972 485.933563,758.314514 486.731781,758.219910 
	C486.388611,758.620178 485.767822,758.920654 485.019714,758.962280 
z"/>
<path fill="#F9F9F9" opacity="1.000000" stroke="none" 
	d="
M394.549561,813.468262 
	C394.582123,813.523132 394.516968,813.413391 394.549561,813.468262 
z"/>
<path fill="#F9F9F9" opacity="1.000000" stroke="none" 
	d="
M468.467468,777.449585 
	C468.523041,777.416382 468.411865,777.482788 468.467468,777.449585 
z"/>
<path fill="#F9F9F9" opacity="1.000000" stroke="none" 
	d="
M470.532715,775.550598 
	C470.476837,775.583984 470.588593,775.517212 470.532715,775.550598 
z"/>
<path fill="#F9F9F9" opacity="1.000000" stroke="none" 
	d="
M490.533081,824.550903 
	C490.476807,824.584656 490.589325,824.517151 490.533081,824.550903 
z"/>
<path fill="#F9F9F9" opacity="1.000000" stroke="none" 
	d="
M475.448486,766.533569 
	C475.414276,766.476807 475.482666,766.590393 475.448486,766.533569 
z"/>
<path fill="#020202" opacity="1.000000" stroke="none" 
	d="
M284.263824,618.077637 
	C289.619019,617.438416 294.523560,616.841858 300.172394,616.154785 
	C300.172394,625.024109 300.185181,633.929871 300.166870,642.835571 
	C300.157990,647.160217 300.103821,651.484985 300.047424,655.809326 
	C299.923279,665.327393 295.432098,669.599121 285.747986,670.042297 
	C276.214020,670.478638 266.697968,671.305115 255.754471,672.057983 
	C252.776367,663.384766 249.168015,653.618225 246.142990,643.674316 
	C245.045090,640.065186 245.722336,635.946045 244.880920,632.219666 
	C244.191071,629.164612 242.450424,626.346802 240.947586,622.901123 
	C255.137314,621.318542 269.475250,619.719421 284.263824,618.077637 
z"/>
<path fill="#010101" opacity="1.000000" stroke="none" 
	d="
M427.849365,128.592209 
	C427.268524,129.395966 426.449158,129.797882 425.268738,130.128632 
	C425.808716,129.435089 426.709778,128.812744 427.849365,128.592209 
z"/>
<path fill="#010101" opacity="1.000000" stroke="none" 
	d="
M246.752502,160.678955 
	C246.132843,160.875793 245.741196,160.734818 245.349548,160.593842 
	C245.452591,160.387772 245.580841,159.996063 245.654541,160.006058 
	C246.103424,160.067017 246.539917,160.219330 246.752502,160.678955 
z"/>
<path fill="#010101" opacity="1.000000" stroke="none" 
	d="
M317.607117,577.027588 
	C317.917664,577.945312 317.821930,578.947388 317.330719,580.192017 
	C317.023773,579.327026 317.112305,578.219421 317.607117,577.027588 
z"/>
</svg>